<?xml version="1.0" encoding="utf-8"?>
<svg xmlns="http://www.w3.org/2000/svg" style="margin: auto; background: none; display: block; shape-rendering: auto;" width="280" height="250" preserveAspectRatio="xMidYMid">
  <style type="text/css">
  text {
    text-anchor: middle; font-size: 54px; opacity: 0;
  }
  </style>
  <g style="transform-origin: 140px 125px; transform: scale(0.964286);">
    <g transform="translate(140,125)">
      <g transform="translate(0,0)">
        <g class="path" style="opacity: 1; transform-origin: -120.085px -6.16773px; animation: 1s linear -0.563077s infinite normal forwards running fade-4ce89ba6-eb39-4de3-9af7-bac72126d4de;">
          <path d="M3.98-1.68L3.98-41.94L8.46-42.45L8.46-25.76L8.46-25.76Q9.69-26.60 11.03-27.22L11.03-27.22L11.03-27.22Q12.15-27.78 13.55-28.25L13.55-28.25L13.55-28.25Q14.95-28.73 16.35-28.73L16.35-28.73L16.35-28.73Q18.65-28.73 20.69-27.83L20.69-27.83L20.69-27.83Q22.74-26.94 24.28-25.14L24.28-25.14L24.28-25.14Q25.82-23.35 26.71-20.61L26.71-20.61L26.71-20.61Q27.61-17.86 27.61-14.11L27.61-14.11L27.61-14.11Q27.61-9.97 26.46-7.14L26.46-7.14L26.46-7.14Q25.31-4.31 23.38-2.58L23.38-2.58L23.38-2.58Q21.45-0.84 18.98-0.06L18.98-0.06L18.98-0.06Q16.52 0.73 13.94 0.73L13.94 0.73L13.94 0.73Q11.37 0.73 9.49 0.36L9.49 0.36L9.49 0.36Q7.62 0 6.38-0.45L6.38-0.45L6.38-0.45Q4.93-1.01 3.98-1.68L3.98-1.68zM8.46-21.73L8.46-4.14L8.46-4.14Q9.18-3.86 10.02-3.67L10.02-3.67L10.02-3.67Q10.86-3.47 11.84-3.33L11.84-3.33L11.84-3.33Q12.82-3.19 13.94-3.19L13.94-3.19L13.94-3.19Q16.52-3.19 18.26-3.92L18.26-3.92L18.26-3.92Q19.99-4.65 21-6.05L21-6.05L21-6.05Q22.01-7.45 22.43-9.44L22.43-9.44L22.43-9.44Q22.85-11.42 22.85-13.89L22.85-13.89L22.85-13.89Q22.85-15.85 22.43-17.81L22.43-17.81L22.43-17.81Q22.01-19.77 21.11-21.31L21.11-21.31L21.11-21.31Q20.22-22.85 18.90-23.83L18.90-23.83L18.90-23.83Q17.58-24.81 15.85-24.81L15.85-24.81L15.85-24.81Q14.67-24.81 13.38-24.33L13.38-24.33L13.38-24.33Q12.10-23.86 10.98-23.24L10.98-23.24L10.98-23.24Q9.69-22.57 8.46-21.73L8.46-21.73" fill="#000000" stroke="none" stroke-width="none" transform="translate(-135.8800048828125,14.692267925555894)" style="fill: rgb(0, 0, 0);"></path>
        </g>
        <g class="path" style="opacity: 1; transform-origin: -92.645px 0.692268px; animation: 1s linear -0.516154s infinite normal forwards running fade-4ce89ba6-eb39-4de3-9af7-bac72126d4de;">
          <path d="M49.84-6.55L49.84-12.94L49.84-12.94Q48.72-12.88 47.71-12.82L47.71-12.82L47.71-12.82Q46.70-12.77 45.72-12.68L45.72-12.68L45.72-12.68Q44.74-12.60 43.96-12.49L43.96-12.49L43.96-12.49Q39.93-11.98 38.25-10.72L38.25-10.72L38.25-10.72Q36.57-9.46 36.57-7.11L36.57-7.11L36.57-7.11Q36.57-5.15 37.77-4.17L37.77-4.17L37.77-4.17Q38.98-3.19 40.94-3.19L40.94-3.19L40.94-3.19Q43.62-3.19 45.72-4.12L45.72-4.12L45.72-4.12Q47.82-5.04 49.84-6.55L49.84-6.55zM50.34 0.45L49.78-2.63L49.78-2.63Q47.15-1.12 44.88-0.20L44.88-0.20L44.88-0.20Q42.62 0.73 39.98 0.73L39.98 0.73L39.98 0.73Q36.23 0.73 34.02-1.09L34.02-1.09L34.02-1.09Q31.81-2.91 31.81-7.11L31.81-7.11L31.81-7.11Q31.81-9.30 32.93-10.92L32.93-10.92L32.93-10.92Q34.05-12.54 35.87-13.64L35.87-13.64L35.87-13.64Q37.69-14.73 39.98-15.34L39.98-15.34L39.98-15.34Q42.28-15.96 44.69-16.13L44.69-16.13L44.69-16.13Q45.70-16.24 47.32-16.32L47.32-16.32L47.32-16.32Q48.94-16.41 49.84-16.46L49.84-16.46L49.84-16.46Q49.84-18.42 49.73-19.96L49.73-19.96L49.73-19.96Q49.62-21.50 49.06-22.60L49.06-22.60L49.06-22.60Q48.50-23.69 47.40-24.25L47.40-24.25L47.40-24.25Q46.31-24.81 44.30-24.81L44.30-24.81L44.30-24.81Q42.67-24.81 41.16-24.61L41.16-24.61L41.16-24.61Q39.65-24.42 38.47-24.19L38.47-24.19L38.47-24.19Q37.07-23.91 35.90-23.58L35.90-23.58L35-27.44L35-27.44Q36.40-27.78 38.02-28.06L38.02-28.06L38.02-28.06Q39.42-28.34 41.27-28.53L41.27-28.53L41.27-28.53Q43.12-28.73 45.25-28.73L45.25-28.73L45.25-28.73Q48.10-28.73 49.87-27.89L49.87-27.89L49.87-27.89Q51.63-27.05 52.61-25.62L52.61-25.62L52.61-25.62Q53.59-24.19 53.96-22.37L53.96-22.37L53.96-22.37Q54.32-20.55 54.32-18.54L54.32-18.54L54.32-5.10L54.32-5.10Q54.32-4.31 54.35-3.44L54.35-3.44L54.35-3.44Q54.38-2.58 54.46-1.74L54.46-1.74L54.46-1.74Q54.54-0.90 54.66 0L54.66 0L50.34 0.45" fill="#000000" stroke="none" stroke-width="none" transform="translate(-135.8800048828125,14.692267925555894)" style="fill: rgb(25, 70, 69);"></path>
        </g>
        <g class="path" style="opacity: 1; transform-origin: -71.42px 0.327269px; animation: 1s linear -0.469231s infinite normal forwards running fade-4ce89ba6-eb39-4de3-9af7-bac72126d4de;">
          <path d="M62.22 0L62.22-28.22L66.70-28.73L66.70 0L62.22 0" fill="#000000" stroke="none" stroke-width="none" transform="translate(-135.8800048828125,14.692267925555894)" style="fill: rgb(241, 154, 51);"></path>
        </g>
        <g class="path" style="opacity: 1; transform-origin: -71.285px -21.5427px; animation: 1s linear -0.422308s infinite normal forwards running fade-4ce89ba6-eb39-4de3-9af7-bac72126d4de;">
          <path d="M61.49-36.23L61.49-36.23L61.49-36.23Q61.49-37.52 62.36-38.39L62.36-38.39L62.36-38.39Q63.22-39.26 64.51-39.26L64.51-39.26L64.51-39.26Q65.86-39.26 66.78-38.39L66.78-38.39L66.78-38.39Q67.70-37.52 67.70-36.23L67.70-36.23L67.70-36.23Q67.70-34.94 66.78-34.08L66.78-34.08L66.78-34.08Q65.86-33.21 64.51-33.21L64.51-33.21L64.51-33.21Q63.22-33.21 62.36-34.08L62.36-34.08L62.36-34.08Q61.49-34.94 61.49-36.23" fill="#000000" stroke="none" stroke-width="none" transform="translate(-135.8800048828125,14.692267925555894)" style="fill: rgb(0, 0, 0);"></path>
        </g>
        <g class="path" style="opacity: 1; transform-origin: -51.265px 7.38227px; animation: 1s linear -0.375385s infinite normal forwards running fade-4ce89ba6-eb39-4de3-9af7-bac72126d4de;">
          <path d="M82.38-0.73L71.12-28.17L75.88-28.17L81.14-15.46L81.14-15.46Q81.93-13.61 82.57-11.76L82.57-11.76L82.57-11.76Q83.22-9.91 83.72-8.46L83.72-8.46L83.72-8.46Q84.34-6.72 84.78-5.10L84.78-5.10L84.84-5.10L84.84-5.10Q85.34-6.72 85.96-8.46L85.96-8.46L85.96-8.46Q86.46-9.91 87.14-11.76L87.14-11.76L87.14-11.76Q87.81-13.61 88.54-15.46L88.54-15.46L93.41-28.17L98.11-28.17L84.78 5.43L84.78 5.43Q84 7.50 82.74 9.02L82.74 9.02L82.74 9.02Q81.48 10.53 80.30 11.54L80.30 11.54L80.30 11.54Q78.90 12.71 77.39 13.55L77.39 13.55L75.21 9.69L75.21 9.69Q76.38 9.13 77.39 8.29L77.39 8.29L77.39 8.29Q78.29 7.56 79.18 6.47L79.18 6.47L79.18 6.47Q80.08 5.38 80.64 3.86L80.64 3.86L82.38-0.73" fill="#000000" stroke="none" stroke-width="none" transform="translate(-135.8800048828125,14.692267925555894)" style="fill: rgb(25, 70, 69);"></path>
        </g>
        <g class="path" style="opacity: 1; transform-origin: -23.24px 0.692268px; animation: 1s linear -0.328462s infinite normal forwards running fade-4ce89ba6-eb39-4de3-9af7-bac72126d4de;">
          <path d="M122.30-4.42L123.14-0.67L123.14-0.67Q121.86-0.28 120.48 0L120.48 0L120.48 0Q119.11 0.28 117.46 0.50L117.46 0.50L117.46 0.50Q115.81 0.73 114.02 0.73L114.02 0.73L114.02 0.73Q111.22 0.73 108.81-0.06L108.81-0.06L108.81-0.06Q106.40-0.84 104.61-2.58L104.61-2.58L104.61-2.58Q102.82-4.31 101.78-7.08L101.78-7.08L101.78-7.08Q100.74-9.86 100.74-13.89L100.74-13.89L100.74-13.89Q100.74-17.53 101.75-20.30L101.75-20.30L101.75-20.30Q102.76-23.07 104.52-24.95L104.52-24.95L104.52-24.95Q106.29-26.82 108.67-27.78L108.67-27.78L108.67-27.78Q111.05-28.73 113.85-28.73L113.85-28.73L113.85-28.73Q116.59-28.73 118.61-27.66L118.61-27.66L118.61-27.66Q120.62-26.60 121.94-24.78L121.94-24.78L121.94-24.78Q123.26-22.96 123.90-20.52L123.90-20.52L123.90-20.52Q124.54-18.09 124.54-15.40L124.54-15.40L123.70-12.94L105.62-12.94L105.62-12.94Q105.62-11.20 106.06-9.46L106.06-9.46L106.06-9.46Q106.51-7.73 107.60-6.33L107.60-6.33L107.60-6.33Q108.70-4.93 110.46-4.06L110.46-4.06L110.46-4.06Q112.22-3.19 114.86-3.19L114.86-3.19L114.86-3.19Q116.54-3.19 117.94-3.39L117.94-3.39L117.94-3.39Q119.34-3.58 120.37-3.84L120.37-3.84L120.37-3.84Q121.41-4.09 122.30-4.42L122.30-4.42zM105.78-16.52L119.90-16.52L119.90-16.52Q119.90-16.91 119.73-18.26L119.73-18.26L119.73-18.26Q119.56-19.60 118.94-21.06L118.94-21.06L118.94-21.06Q118.33-22.51 117.04-23.66L117.04-23.66L117.04-23.66Q115.75-24.81 113.62-24.81L113.62-24.81L113.62-24.81Q111.27-24.81 109.76-23.83L109.76-23.83L109.76-23.83Q108.25-22.85 107.35-21.50L107.35-21.50L107.35-21.50Q106.46-20.16 106.12-18.76L106.12-18.76L106.12-18.76Q105.78-17.36 105.78-16.52L105.78-16.52" fill="#000000" stroke="none" stroke-width="none" transform="translate(-135.8800048828125,14.692267925555894)" style="fill: rgb(241, 154, 51);"></path>
        </g>
        <g class="path" style="opacity: 1; transform-origin: 3.27999px 0.607268px; animation: 1s linear -0.281538s infinite normal forwards running fade-4ce89ba6-eb39-4de3-9af7-bac72126d4de;">
          <path d="M127.96 0L127.96-1.74L144.03-24.70L144.03-24.70Q141.68-24.53 140.70-24.50L140.70-24.50L140.70-24.50Q139.72-24.47 138.49-24.47L138.49-24.47L129.36-24.47L129.36-28.17L150.36-28.17L150.36-26.21L134.57-3.53L134.57-3.53Q136.58-3.64 137.26-3.67L137.26-3.67L137.26-3.67Q137.93-3.70 138.54-3.70L138.54-3.70L150.30-3.70L150.30 0L127.96 0" fill="#000000" stroke="none" stroke-width="none" transform="translate(-135.8800048828125,14.692267925555894)" style="fill: rgb(0, 0, 0);"></path>
        </g>
        <g class="path" style="opacity: 1; transform-origin: 22.77px 0.327269px; animation: 1s linear -0.234615s infinite normal forwards running fade-4ce89ba6-eb39-4de3-9af7-bac72126d4de;">
          <path d="M156.41 0L156.41-28.22L160.89-28.73L160.89 0L156.41 0" fill="#000000" stroke="none" stroke-width="none" transform="translate(-135.8800048828125,14.692267925555894)" style="fill: rgb(25, 70, 69);"></path>
        </g>
        <g class="path" style="opacity: 1; transform-origin: 22.91px -21.5427px; animation: 1s linear -0.187692s infinite normal forwards running fade-4ce89ba6-eb39-4de3-9af7-bac72126d4de;">
          <path d="M155.68-36.23L155.68-36.23L155.68-36.23Q155.68-37.52 156.55-38.39L156.55-38.39L156.55-38.39Q157.42-39.26 158.70-39.26L158.70-39.26L158.70-39.26Q160.05-39.26 160.97-38.39L160.97-38.39L160.97-38.39Q161.90-37.52 161.90-36.23L161.90-36.23L161.90-36.23Q161.90-34.94 160.97-34.08L160.97-34.08L160.97-34.08Q160.05-33.21 158.70-33.21L158.70-33.21L158.70-33.21Q157.42-33.21 156.55-34.08L156.55-34.08L156.55-34.08Q155.68-34.94 155.68-36.23" fill="#000000" stroke="none" stroke-width="none" transform="translate(-135.8800048828125,14.692267925555894)" style="fill: rgb(241, 154, 51);"></path>
        </g>
        <g class="path" style="opacity: 1; transform-origin: 35.285px 11.3873px; animation: 1s linear -0.140769s infinite normal forwards running fade-4ce89ba6-eb39-4de3-9af7-bac72126d4de;">
          <path d="M167.78-3.30L167.78-3.30L167.78-3.30Q167.78-4.65 168.73-5.63L168.73-5.63L168.73-5.63Q169.68-6.61 171.08-6.61L171.08-6.61L171.08-6.61Q172.54-6.61 173.54-5.63L173.54-5.63L173.54-5.63Q174.55-4.65 174.55-3.30L174.55-3.30L174.55-3.30Q174.55-1.90 173.54-0.95L173.54-0.95L173.54-0.95Q172.54 0 171.08 0L171.08 0L171.08 0Q169.68 0 168.73-0.95L168.73-0.95L168.73-0.95Q167.78-1.90 167.78-3.30" fill="#000000" stroke="none" stroke-width="none" transform="translate(-135.8800048828125,14.692267925555894)" style="fill: rgb(0, 0, 0);"></path>
        </g>
        <g class="path" style="opacity: 1; transform-origin: 54.21px 0.692268px; animation: 1s linear -0.0938462s infinite normal forwards running fade-4ce89ba6-eb39-4de3-9af7-bac72126d4de;">
          <path d="M199.75-27.83L198.86-24.08L198.86-24.08Q197.90-24.30 196.22-24.56L196.22-24.56L196.22-24.56Q194.54-24.81 192.81-24.81L192.81-24.81L192.81-24.81Q190.29-24.81 188.69-23.80L188.69-23.80L188.69-23.80Q187.10-22.79 186.20-21.20L186.20-21.20L186.20-21.20Q185.30-19.60 184.97-17.67L184.97-17.67L184.97-17.67Q184.63-15.74 184.63-13.89L184.63-13.89L184.63-13.89Q184.63-11.03 185.36-8.99L185.36-8.99L185.36-8.99Q186.09-6.94 187.29-5.66L187.29-5.66L187.29-5.66Q188.50-4.37 190.06-3.78L190.06-3.78L190.06-3.78Q191.63-3.19 193.37-3.19L193.37-3.19L193.37-3.19Q194.54-3.19 195.64-3.33L195.64-3.33L195.64-3.33Q196.73-3.47 197.65-3.67L197.65-3.67L197.65-3.67Q198.58-3.86 199.42-4.14L199.42-4.14L200.31-0.39L200.31-0.39Q199.14-0.06 198.13 0.17L198.13 0.17L198.13 0.17Q197.12 0.39 195.75 0.56L195.75 0.56L195.75 0.56Q194.38 0.73 192.81 0.73L192.81 0.73L192.81 0.73Q189.73 0.73 187.32-0.06L187.32-0.06L187.32-0.06Q184.91-0.84 183.26-2.58L183.26-2.58L183.26-2.58Q181.61-4.31 180.74-7.11L180.74-7.11L180.74-7.11Q179.87-9.91 179.87-13.94L179.87-13.94L179.87-13.94Q179.87-17.86 180.96-20.69L180.96-20.69L180.96-20.69Q182.06-23.52 183.85-25.28L183.85-25.28L183.85-25.28Q185.64-27.05 187.96-27.89L187.96-27.89L187.96-27.89Q190.29-28.73 192.81-28.73L192.81-28.73L192.81-28.73Q194.15-28.73 195.41-28.59L195.41-28.59L195.41-28.59Q196.67-28.45 197.62-28.28L197.62-28.28L197.62-28.28Q198.74-28.06 199.75-27.83L199.75-27.83" fill="#000000" stroke="none" stroke-width="none" transform="translate(-135.8800048828125,14.692267925555894)" style="fill: rgb(25, 70, 69);"></path>
        </g>
        <g class="path" style="opacity: 1; transform-origin: 81.345px 0.692268px; animation: 1s linear -0.0469231s infinite normal forwards running fade-4ce89ba6-eb39-4de3-9af7-bac72126d4de;">
          <path d="M208.38-13.94L208.38-13.94L208.38-13.94Q208.38-8.51 210.81-5.85L210.81-5.85L210.81-5.85Q213.25-3.19 217.39-3.19L217.39-3.19L217.39-3.19Q221.48-3.19 223.78-5.82L223.78-5.82L223.78-5.82Q226.07-8.46 226.07-13.72L226.07-13.72L226.07-13.72Q226.07-19.32 223.64-22.06L223.64-22.06L223.64-22.06Q221.20-24.81 217.00-24.81L217.00-24.81L217.00-24.81Q212.80-24.81 210.59-22.09L210.59-22.09L210.59-22.09Q208.38-19.38 208.38-13.94zM203.62-14L203.62-14L203.62-14Q203.62-18.26 204.96-21.08L204.96-21.08L204.96-21.08Q206.30-23.91 208.38-25.62L208.38-25.62L208.38-25.62Q210.45-27.33 212.83-28.03L212.83-28.03L212.83-28.03Q215.21-28.73 217.34-28.73L217.34-28.73L217.34-28.73Q219.35-28.73 221.73-28.08L221.73-28.08L221.73-28.08Q224.11-27.44 226.13-25.79L226.13-25.79L226.13-25.79Q228.14-24.14 229.49-21.36L229.49-21.36L229.49-21.36Q230.83-18.59 230.83-14.34L230.83-14.34L230.83-14.34Q230.83-9.91 229.46-7L229.46-7L229.46-7Q228.09-4.09 226.02-2.38L226.02-2.38L226.02-2.38Q223.94-0.67 221.54 0.03L221.54 0.03L221.54 0.03Q219.13 0.73 217.06 0.73L217.06 0.73L217.06 0.73Q214.93 0.73 212.58 0.06L212.58 0.06L212.58 0.06Q210.22-0.62 208.24-2.27L208.24-2.27L208.24-2.27Q206.25-3.92 204.93-6.78L204.93-6.78L204.93-6.78Q203.62-9.63 203.62-14" fill="#000000" stroke="none" stroke-width="none" transform="translate(-135.8800048828125,14.692267925555894)" style="fill: rgb(241, 154, 51);"></path>
        </g>
        <g class="path" style="opacity: 1; transform-origin: 120.515px 0.327269px; animation: 1s linear 0s infinite normal forwards running fade-4ce89ba6-eb39-4de3-9af7-bac72126d4de;">
          <path d="M237.38 0L237.38-23.07L237.38-23.07Q237.38-24.98 237.05-27.66L237.05-27.66L241.25-28.22L241.86-24.70L241.86-24.70Q243.38-25.82 244.83-26.66L244.83-26.66L244.83-26.66Q246.29-27.50 247.97-28.11L247.97-28.11L247.97-28.11Q249.65-28.73 251.38-28.73L251.38-28.73L251.38-28.73Q254.18-28.73 255.81-27.75L255.81-27.75L255.81-27.75Q257.43-26.77 258.22-24.42L258.22-24.42L258.22-24.42Q260.51-26.04 263.00-27.38L263.00-27.38L263.00-27.38Q265.50-28.73 268.18-28.73L268.18-28.73L268.18-28.73Q270.26-28.73 271.71-28.20L271.71-28.20L271.71-28.20Q273.17-27.66 274.06-26.43L274.06-26.43L274.06-26.43Q274.96-25.20 275.35-23.18L275.35-23.18L275.35-23.18Q275.74-21.17 275.74-18.14L275.74-18.14L275.74 0L271.26 0L271.26-17.64L271.26-17.64Q271.26-19.32 271.21-20.64L271.21-20.64L271.21-20.64Q271.15-21.95 270.82-22.88L270.82-22.88L270.82-22.88Q270.48-23.80 269.72-24.30L269.72-24.30L269.72-24.30Q268.97-24.81 267.57-24.81L267.57-24.81L267.57-24.81Q266.28-24.81 265.13-24.44L265.13-24.44L265.13-24.44Q263.98-24.08 262.75-23.41L262.75-23.41L262.75-23.41Q261.52-22.74 258.94-20.66L258.94-20.66L258.94 0L254.46 0L254.46-17.64L254.46-17.64Q254.46-19.32 254.41-20.64L254.41-20.64L254.41-20.64Q254.35-21.95 254.02-22.88L254.02-22.88L254.02-22.88Q253.68-23.80 252.92-24.30L252.92-24.30L252.92-24.30Q252.17-24.81 250.77-24.81L250.77-24.81L250.77-24.81Q249.31-24.81 247.74-24.19L247.74-24.19L247.74-24.19Q246.18-23.58 244.78-22.74L244.78-22.74L244.78-22.74Q243.38-21.90 241.86-20.78L241.86-20.78L241.86 0L237.38 0" fill="#000000" stroke="none" stroke-width="none" transform="translate(-135.8800048828125,14.692267925555894)" style="fill: rgb(0, 0, 0);"></path>
        </g>
      </g>
    </g>
  </g>
  <style id="fade-4ce89ba6-eb39-4de3-9af7-bac72126d4de" data-anikit="">@keyframes fade-4ce89ba6-eb39-4de3-9af7-bac72126d4de
{
  0% {
    animation-timing-function: cubic-bezier(0.6277,0.0816,0.7943,0.427);
    opacity: 1;
  }
  100% {
    opacity: 0;
  }
}</style>
</svg>